<svg width="15" height="15" viewBox="0 0 15 15" fill="none" xmlns="http://www.w3.org/2000/svg">
<path fill-rule="evenodd" clip-rule="evenodd" d="M15 12.5C15 10.567 11.6421 9 7.5 9C3.35791 9 0 10.567 0 12.5V15H1V14V12.5C1 11.12 3.91016 10 7.5 10C11.0898 10 14 11.12 14 12.5V14V15H15V12.5ZM9.9751 1.02515C9.31836 0.368774 8.42822 0 7.5 0C6.57178 0 5.68164 0.368774 5.0249 1.02515C4.36865 1.68152 4 2.57172 4 3.5C4 4.42828 4.36865 5.31848 5.0249 5.97485C5.68164 6.63123 6.57178 7 7.5 7C8.42822 7 9.31836 6.63123 9.9751 5.97485C10.6313 5.31848 11 4.42828 11 3.5C11 2.57172 10.6313 1.68152 9.9751 1.02515ZM5.73242 1.73224C6.20117 1.26337 6.83691 1 7.5 1C8.16309 1 8.79883 1.26337 9.26758 1.73224C9.73682 2.20105 10 2.83698 10 3.5C10 4.16302 9.73682 4.79895 9.26758 5.26776C8.79883 5.73663 8.16309 6 7.5 6C6.83691 6 6.20117 5.73663 5.73242 5.26776C5.26318 4.79895 5 4.16302 5 3.5C5 2.83698 5.26318 2.20105 5.73242 1.73224Z" fill="#76787A"/>
</svg>
