<svg width="18" height="21" viewBox="0 0 18 21" fill="none" xmlns="http://www.w3.org/2000/svg">
<path fill-rule="evenodd" clip-rule="evenodd" d="M15.7165 9.74015L15.7098 9.74264C13.818 10.4505 11.3581 10.8438 8.75 10.8438C6.14253 10.8438 3.681 10.4507 1.79222 9.74267C1.52437 9.64273 1.25906 9.53269 1 9.41185V11.8125C1 11.8771 1.03131 12.0582 1.35109 12.3418C1.66975 12.6243 2.18791 12.9244 2.91405 13.1966C4.35896 13.7383 6.4221 14.0938 8.75 14.0938C11.0779 14.0938 13.141 13.7383 14.5859 13.1966C15.3121 12.9244 15.8302 12.6243 16.1489 12.3418C16.4687 12.0582 16.5 11.8771 16.5 11.8125V9.40518C16.2393 9.52763 15.9776 9.63817 15.7231 9.73757L15.7165 9.74015ZM16.5 8.28724C16.1356 8.48193 15.747 8.6547 15.3594 8.80605C13.6055 9.4623 11.2695 9.84375 8.75 9.84375C6.23047 9.84375 3.89297 9.4623 2.14258 8.80605C1.74142 8.65641 1.35679 8.48584 1 8.29384V6.77494C2.46413 7.81935 5.38548 8.53125 8.75 8.53125C12.1145 8.53125 15.0359 7.81935 16.5 6.77494L16.5 8.28724ZM16.5 5.25L16.5 3.5L16.5 3.28125C16.5 3.21697 16.4688 3.03595 16.1489 2.75238C15.8302 2.46985 15.312 2.16973 14.5859 1.89743C13.141 1.35559 11.0778 1 8.75 1C6.42217 1 4.35903 1.35559 2.91411 1.89743C2.18795 2.16973 1.66975 2.46985 1.35105 2.75238C1.03118 3.03595 1 3.21697 1 3.28125V3.5V5.25C1 5.31461 1.03131 5.49573 1.35109 5.77925C1.66975 6.06178 2.18791 6.36186 2.91405 6.63411C4.35896 7.17585 6.4221 7.53125 8.75 7.53125C11.0779 7.53125 13.141 7.17585 14.5859 6.63411C15.3121 6.36186 15.8302 6.06178 16.1489 5.77925C16.4687 5.49573 16.5 5.31461 16.5 5.25ZM17.5 3.5L17.5 5.25V7.63301V8.86211V11.8125V14.1955V15.4246L17.5 16.5L17.5 17.7188C17.5 19.5316 13.582 21 8.75 21C3.91797 21 0 19.5316 0 17.7188V16.5V15.4281V14.1955V11.8125V8.86561V7.63301V5.25V3.5V3.28125C0 1.46918 3.91797 0 8.75 0C13.582 0 17.5 1.46918 17.5 3.28125L17.5 3.5ZM16.5 16.5L16.5 15.9677C16.2393 16.0901 15.9776 16.2007 15.7231 16.3001L15.7165 16.3027L15.7098 16.3051C13.818 17.013 11.3581 17.4062 8.75 17.4062C6.14221 17.4062 3.6804 17.0131 1.79152 16.3049C1.52391 16.205 1.25884 16.0951 1 15.9743V16.5V17.7188C1 17.7834 1.03131 17.9645 1.35109 18.248C1.66975 18.5305 2.18791 18.8306 2.91405 19.1029C4.35896 19.6446 6.4221 20 8.75 20C11.0779 20 13.141 19.6446 14.5859 19.1029C15.3121 18.8306 15.8302 18.5305 16.1489 18.248C16.4687 17.9645 16.5 17.7834 16.5 17.7188L16.5 16.5ZM16.5 14.8497L16.5 13.3374C15.0359 14.3819 12.1145 15.0938 8.75 15.0938C5.38548 15.0938 2.46413 14.3819 1 13.3374V14.8563C1.35679 15.0483 1.74142 15.2189 2.14258 15.3686C3.89297 16.0248 6.23047 16.4062 8.75 16.4062C11.2695 16.4062 13.6055 16.0248 15.3594 15.3686C15.747 15.2172 16.1356 15.0444 16.5 14.8497Z" fill="#76787A"/>
</svg>
