<svg width="50" height="50" viewBox="0 0 50 50" fill="none" xmlns="http://www.w3.org/2000/svg">
<path d="M21.0723 36.7646C21.3234 36.7654 21.5715 36.71 21.7983 36.6024C22.0251 36.4948 22.225 36.3377 22.3831 36.1428L30.5 26.0597C30.7472 25.759 30.8823 25.3818 30.8823 24.9926C30.8823 24.6033 30.7472 24.2261 30.5 23.9254L22.0975 13.8423C21.8122 13.4992 21.4023 13.2833 20.9579 13.2424C20.5136 13.2014 20.0711 13.3386 19.7279 13.6239C19.3847 13.9091 19.1689 14.319 19.128 14.7634C19.087 15.2078 19.2242 15.6502 19.5095 15.9934L27.0214 25.001L19.7615 34.0085C19.556 34.2552 19.4255 34.5556 19.3854 34.8741C19.3453 35.1926 19.3972 35.516 19.5351 35.8059C19.673 36.0959 19.8911 36.3403 20.1635 36.5101C20.4359 36.68 20.7513 36.7683 21.0723 36.7646Z" fill="#118DFF"/>
</svg>
