<svg width="50" height="50" viewBox="0 0 50 50" fill="none" xmlns="http://www.w3.org/2000/svg">
<path d="M28.9277 36.7646C28.6766 36.7654 28.4285 36.71 28.2017 36.6024C27.9749 36.4948 27.775 36.3377 27.6169 36.1428L19.5 26.0597C19.2528 25.759 19.1177 25.3818 19.1177 24.9926C19.1177 24.6033 19.2528 24.2261 19.5 23.9254L27.9025 13.8423C28.1878 13.4992 28.5977 13.2833 29.0421 13.2424C29.4864 13.2014 29.9289 13.3386 30.2721 13.6239C30.6153 13.9091 30.8311 14.319 30.872 14.7634C30.913 15.2078 30.7758 15.6502 30.4905 15.9934L22.9786 25.001L30.2385 34.0085C30.444 34.2552 30.5745 34.5556 30.6146 34.8741C30.6547 35.1926 30.6028 35.516 30.4649 35.8059C30.327 36.0959 30.1089 36.3403 29.8365 36.5101C29.5641 36.68 29.2487 36.7683 28.9277 36.7646Z" fill="#118DFF"/>
</svg>
