<svg width="15" height="15" viewBox="0 0 15 15" fill="none" xmlns="http://www.w3.org/2000/svg">
<path d="M3.12966 13.3329H8.61121C9.24108 13.3329 9.86478 13.2089 10.4467 12.9678C11.0286 12.7268 11.5574 12.3735 12.0027 11.9281C12.4481 11.4827 12.8014 10.954 13.0425 10.3721C13.2835 9.79015 13.4076 9.16645 13.4076 8.53659C13.4076 7.90672 13.2835 7.28302 13.0425 6.7011C12.8014 6.11918 12.4481 5.59044 12.0027 5.14505C11.5574 4.69967 11.0286 4.34637 10.4467 4.10534C9.86478 3.8643 9.24108 3.74023 8.61121 3.74023H1.75928" stroke="#C7C4C4" stroke-width="1.64446" stroke-linecap="round" stroke-linejoin="round"/>
<path d="M4.50005 1L1.75928 3.74077L4.50005 6.48155" stroke="#C7C4C4" stroke-width="1.64446" stroke-linecap="round" stroke-linejoin="round"/>
</svg>
