<svg width="20" height="16" viewBox="0 0 20 16" fill="none" xmlns="http://www.w3.org/2000/svg">
<g clip-path="url(#clip0_112_2)">
<path fill-rule="evenodd" clip-rule="evenodd" d="M11.3905 0C12.2107 0 12.8762 0.671562 12.8762 1.5V3H14.4455C14.9717 3 15.4483 3.20937 15.8476 3.58437L18.2402 6C18.6117 6.375 18.819 6.88438 18.819 7.41563V11C19.3669 11 19.8095 11.4469 19.8095 12C19.8095 12.5531 19.3669 13 18.819 13H17.8286C17.8286 14.6562 16.4976 16 14.8571 16C13.1888 16 11.8857 14.6562 11.8857 13H7.92381C7.92381 14.6562 6.59286 16 4.95238 16C3.28405 16 1.98095 14.6562 1.98095 13H1.48571C0.665167 13 0 12.3281 0 11.5V1.5C0 0.671562 0.665167 0 1.48571 0H11.3905ZM4.95238 11.5C4.13214 11.5 3.46667 12.1719 3.46667 13C3.46667 13.8281 4.13214 14.5 4.95238 14.5C5.77262 14.5 6.4381 13.8281 6.4381 13C6.4381 12.1719 5.77262 11.5 4.95238 11.5ZM14.8571 14.5C15.6774 14.5 16.3429 13.8281 16.3429 13C16.3429 12.1719 15.6774 11.5 14.8571 11.5C14.0369 11.5 13.3714 12.1719 13.3714 13C13.3714 13.8281 14.0369 14.5 14.8571 14.5ZM1 2C1 1.44772 1.44772 1 2 1H11C11.5523 1 12 1.44772 12 2V10C12 10.5523 11.5523 11 11 11H2C1.44771 11 1 10.5523 1 10V2ZM13 4H15L17 6.33333V11H13V4Z" fill="#76787A"/>
</g>
<defs>
<clipPath id="clip0_112_2">
<rect width="19.8095" height="16" fill="white"/>
</clipPath>
</defs>
</svg>
